<svg width="271" height="264" viewBox="0 0 271 264" fill="none" xmlns="http://www.w3.org/2000/svg">
<path fill-rule="evenodd" clip-rule="evenodd" d="M135.49 0.396484C60.7844 0.396484 0.394043 60.7869 0.394043 135.492C0.394043 195.211 39.0886 245.76 92.769 263.654C99.479 264.996 101.939 260.746 101.939 257.167C101.939 254.036 101.716 243.3 101.716 232.117C64.1394 240.169 56.3111 216.013 56.3111 216.013C50.272 200.356 41.3253 196.33 41.3253 196.33C29.0236 188.054 42.22 188.054 42.22 188.054C55.8637 188.949 63.0211 201.921 63.0211 201.921C75.0992 222.499 94.5583 216.684 102.387 213.105C103.505 204.382 107.084 198.343 110.886 194.988C80.9146 191.856 49.3773 180.226 49.3773 128.335C49.3773 113.573 54.7454 101.494 63.2448 92.1004C61.9028 88.7454 57.2057 74.878 64.5868 56.3135C64.5868 56.3135 75.9939 52.7348 101.716 70.1809C112.452 67.2732 124.082 65.7076 135.49 65.7076C146.897 65.7076 158.527 67.2732 169.263 70.1809C194.985 52.7348 206.392 56.3135 206.392 56.3135C213.773 74.878 209.076 88.7454 207.734 92.1004C216.457 101.494 221.602 113.573 221.602 128.335C221.602 180.226 190.065 191.633 159.869 194.988C164.79 199.237 169.04 207.289 169.04 220.039C169.04 238.156 168.816 252.694 168.816 257.167C168.816 260.746 171.276 264.996 177.986 263.654C231.667 245.76 270.361 195.211 270.361 135.492C270.585 60.7869 209.971 0.396484 135.49 0.396484Z" fill="white"/>
</svg> 